<?xml version="1.0" encoding="iso-8859-1"?>
<!-- Uploaded to: SVG Repo, www.svgrepo.com, Generator: SVG Repo Mixer Tools -->
<svg height="800px" width="800px" version="1.1" id="Layer_1" xmlns="http://www.w3.org/2000/svg" xmlns:xlink="http://www.w3.org/1999/xlink" 
	 viewBox="0 0 511.593 511.593" xml:space="preserve">
<path style="fill:#E6E9ED;" d="M480.375,31.218c-41.624-41.624-109.103-41.624-150.726,0l-90.438,90.429
	c-41.624,41.624-41.624,109.118,0,150.734c41.632,41.607,109.11,41.623,150.734,0l90.429-90.438
	C521.999,140.319,521.999,72.841,480.375,31.218z M450.243,151.795l-0.031,0.016l-90.414,90.43
	c-24.965,24.965-65.465,24.965-90.438,0c-24.973-24.98-24.973-65.465,0-90.445c0.008,0,0.016-0.016,0.016-0.016l90.422-90.429
	c24.965-24.965,65.465-24.965,90.445,0C475.224,86.331,475.224,126.815,450.243,151.795z"/>
<path style="fill:#5D9CEC;" d="M272.382,239.211c-41.616-41.624-109.103-41.624-150.727,0l-90.437,90.422
	c-41.624,41.624-41.624,109.118,0,150.741c41.624,41.624,109.11,41.624,150.734,0l90.43-90.444
	C314.005,348.306,314.005,280.827,272.382,239.211z M242.241,359.781c0,0-0.008,0.016-0.016,0.016l-90.421,90.429
	c-24.973,24.965-65.464,24.965-90.437,0c-24.973-24.98-24.973-65.464,0-90.444c0,0,0.008-0.016,0.016-0.016l90.421-90.422
	c24.973-24.965,65.464-24.965,90.437,0C267.222,294.317,267.222,334.817,242.241,359.781z"/>
<path style="fill:#DA4453;" d="M331.179,180.429c-12.49-12.49-32.755-12.49-45.229,0L180.438,285.933
	c-12.49,12.49-12.49,32.725,0,45.215c12.482,12.49,32.732,12.49,45.215,0l105.526-105.504
	C343.653,213.153,343.653,192.919,331.179,180.429z"/>
<path style="fill:#ED5564;" d="M330.399,255.792c0,41.194-33.38,74.605-74.598,74.605c-41.202,0-74.606-33.411-74.606-74.605
	c-0.008-41.202,33.404-74.613,74.606-74.613C297.019,181.179,330.399,214.59,330.399,255.792z"/>
<path style="fill:#F5F7FA;" d="M287.776,255.792c0-5.823-4.669-10.539-10.461-10.648v-0.016h-10.859V234.48
	c0-5.886-4.77-10.664-10.655-10.664c-5.886,0-10.656,4.778-10.656,10.664l0,0l0,0v10.648h-10.664l0,0
	c-5.886,0-10.656,4.778-10.656,10.664c0,5.886,4.77,10.663,10.656,10.663l0,0h10.664v10.641l0,0c0,5.886,4.77,10.664,10.656,10.664
	c5.886,0,10.655-4.778,10.655-10.664v-10.641h10.859v-0.016C283.108,266.346,287.776,261.615,287.776,255.792z"/>
</svg>